<mxfile host="app.diagrams.net" modified="2022-07-19T12:08:03.791Z" agent="5.0 (Macintosh)" etag="AEMpwHUNkn7gGUHs-eaS" version="20.0.3" type="github" pages="2">
  <diagram name="Async:SN2SF" id="X3QRcElQ5Iuo-_neAbF0">
    <mxGraphModel dx="1515" dy="1166" grid="0" gridSize="10" guides="1" tooltips="1" connect="1" arrows="1" fold="1" page="1" pageScale="1" pageWidth="1169" pageHeight="827" math="0" shadow="0">
      <root>
        <mxCell id="YcPQ61z67r9PlWFHKwve-0" />
        <mxCell id="YcPQ61z67r9PlWFHKwve-1" parent="YcPQ61z67r9PlWFHKwve-0" />
        <mxCell id="YcPQ61z67r9PlWFHKwve-2" value="Salesforce" style="swimlane;" parent="YcPQ61z67r9PlWFHKwve-1" vertex="1">
          <mxGeometry x="846" y="187" width="303" height="368" as="geometry" />
        </mxCell>
        <mxCell id="YcPQ61z67r9PlWFHKwve-3" value="Spryker" style="html=1;outlineConnect=0;whiteSpace=wrap;fillColor=#dae8fc;shape=mxgraph.archimate3.application;appType=comp;archiType=square;strokeColor=#6c8ebf;" parent="YcPQ61z67r9PlWFHKwve-2" vertex="1">
          <mxGeometry x="139" y="111" width="150" height="75" as="geometry" />
        </mxCell>
        <mxCell id="YcPQ61z67r9PlWFHKwve-4" value="Salesforce API" style="html=1;outlineConnect=0;whiteSpace=wrap;fillColor=#dae8fc;shape=mxgraph.archimate3.application;appType=interface;archiType=square;strokeColor=#6c8ebf;" parent="YcPQ61z67r9PlWFHKwve-2" vertex="1">
          <mxGeometry x="15" y="111" width="89" height="74" as="geometry" />
        </mxCell>
        <mxCell id="YcPQ61z67r9PlWFHKwve-7" value="DB: Case" style="html=1;outlineConnect=0;whiteSpace=wrap;fillColor=#dae8fc;shape=mxgraph.archimate3.businessObject;overflow=fill;strokeColor=#6c8ebf;" parent="YcPQ61z67r9PlWFHKwve-2" vertex="1">
          <mxGeometry x="139" y="226" width="150" height="75" as="geometry" />
        </mxCell>
        <mxCell id="YcPQ61z67r9PlWFHKwve-8" value="" style="edgeStyle=orthogonalEdgeStyle;html=1;endArrow=open;elbow=vertical;endFill=0;dashed=1;dashPattern=1 4;rounded=0;exitX=0.5;exitY=1;exitDx=0;exitDy=0;exitPerimeter=0;fillColor=#00b9f2;" parent="YcPQ61z67r9PlWFHKwve-2" source="YcPQ61z67r9PlWFHKwve-3" target="YcPQ61z67r9PlWFHKwve-7" edge="1">
          <mxGeometry width="160" relative="1" as="geometry">
            <mxPoint x="-308" y="254" as="sourcePoint" />
            <mxPoint x="-428" y="299" as="targetPoint" />
          </mxGeometry>
        </mxCell>
        <mxCell id="gpyhw4safOaDeC1kDyDY-3" value="" style="edgeStyle=elbowEdgeStyle;html=1;endArrow=block;dashed=1;elbow=horizontal;endFill=1;dashPattern=6 4;rounded=0;fontSize=12;entryX=0;entryY=0.5;entryDx=0;entryDy=0;entryPerimeter=0;exitX=1;exitY=0.5;exitDx=0;exitDy=0;exitPerimeter=0;" parent="YcPQ61z67r9PlWFHKwve-2" source="YcPQ61z67r9PlWFHKwve-4" target="YcPQ61z67r9PlWFHKwve-3" edge="1">
          <mxGeometry width="160" relative="1" as="geometry">
            <mxPoint x="-234.25" y="158" as="sourcePoint" />
            <mxPoint x="25" y="157.8571428571429" as="targetPoint" />
          </mxGeometry>
        </mxCell>
        <mxCell id="gpyhw4safOaDeC1kDyDY-4" value="&lt;b&gt;3&lt;/b&gt;" style="edgeLabel;html=1;align=center;verticalAlign=middle;resizable=0;points=[];fontSize=12;" parent="gpyhw4safOaDeC1kDyDY-3" vertex="1" connectable="0">
          <mxGeometry x="0.0913" y="1" relative="1" as="geometry">
            <mxPoint as="offset" />
          </mxGeometry>
        </mxCell>
        <mxCell id="YcPQ61z67r9PlWFHKwve-9" value="ServiceNow" style="swimlane;" parent="YcPQ61z67r9PlWFHKwve-1" vertex="1">
          <mxGeometry x="17" y="191" width="639" height="368" as="geometry" />
        </mxCell>
        <mxCell id="YcPQ61z67r9PlWFHKwve-13" value="DB: Incident" style="html=1;outlineConnect=0;whiteSpace=wrap;fillColor=#d5e8d4;shape=mxgraph.archimate3.businessObject;overflow=fill;strokeColor=#82b366;" parent="YcPQ61z67r9PlWFHKwve-9" vertex="1">
          <mxGeometry x="292" y="268" width="150" height="75" as="geometry" />
        </mxCell>
        <mxCell id="5iwkOfh3jgj_eVevhEUU-2" value="User Interface" style="html=1;outlineConnect=0;whiteSpace=wrap;fillColor=#d5e8d4;shape=mxgraph.archimate3.application;appType=interface;archiType=square;strokeColor=#82b366;verticalAlign=top;" parent="YcPQ61z67r9PlWFHKwve-9" vertex="1">
          <mxGeometry x="129.5" y="33" width="145" height="228" as="geometry" />
        </mxCell>
        <mxCell id="YcPQ61z67r9PlWFHKwve-15" value="&lt;div&gt;Data &lt;br&gt;&lt;/div&gt;&lt;div&gt;Changes&lt;/div&gt;" style="html=1;outlineConnect=0;whiteSpace=wrap;fillColor=#d5e8d4;shape=mxgraph.archimate3.event;strokeColor=#82b366;" parent="YcPQ61z67r9PlWFHKwve-9" vertex="1">
          <mxGeometry x="12" y="135.5" width="94" height="44.5" as="geometry" />
        </mxCell>
        <mxCell id="YcPQ61z67r9PlWFHKwve-16" value="" style="edgeStyle=none;rounded=0;orthogonalLoop=1;jettySize=auto;html=1;fillColor=#80b6a1;entryX=0;entryY=0.5;entryDx=0;entryDy=0;entryPerimeter=0;exitX=1;exitY=0.5;exitDx=0;exitDy=0;exitPerimeter=0;" parent="YcPQ61z67r9PlWFHKwve-9" source="YcPQ61z67r9PlWFHKwve-15" target="RSIXNE7af6Dr6_zFDwvf-0" edge="1">
          <mxGeometry relative="1" as="geometry">
            <mxPoint x="124" y="167.5114942528735" as="sourcePoint" />
            <mxPoint x="146" y="168.5" as="targetPoint" />
          </mxGeometry>
        </mxCell>
        <mxCell id="YcPQ61z67r9PlWFHKwve-17" value="&lt;font style=&quot;font-size: 14px&quot;&gt;&lt;b&gt;a&lt;/b&gt;&lt;/font&gt;" style="edgeLabel;html=1;align=center;verticalAlign=middle;resizable=0;points=[];fillColor=#80b6a1;" parent="YcPQ61z67r9PlWFHKwve-16" vertex="1" connectable="0">
          <mxGeometry x="0.1385" relative="1" as="geometry">
            <mxPoint x="-4" as="offset" />
          </mxGeometry>
        </mxCell>
        <mxCell id="YcPQ61z67r9PlWFHKwve-18" value="" style="edgeStyle=orthogonalEdgeStyle;html=1;endArrow=open;elbow=vertical;endFill=0;dashed=1;dashPattern=1 4;rounded=0;exitX=0.5;exitY=1;exitDx=0;exitDy=0;exitPerimeter=0;entryX=0;entryY=0.5;entryDx=0;entryDy=0;entryPerimeter=0;fillColor=#80b6a1;" parent="YcPQ61z67r9PlWFHKwve-9" source="RSIXNE7af6Dr6_zFDwvf-0" target="YcPQ61z67r9PlWFHKwve-13" edge="1">
          <mxGeometry width="160" relative="1" as="geometry">
            <mxPoint x="732" y="551.5" as="sourcePoint" />
            <mxPoint x="892" y="551.5" as="targetPoint" />
          </mxGeometry>
        </mxCell>
        <mxCell id="RSIXNE7af6Dr6_zFDwvf-0" value="UI Form" style="html=1;outlineConnect=0;whiteSpace=wrap;fillColor=#d5e8d4;shape=mxgraph.archimate3.application;appType=comp;archiType=square;verticalAlign=middle;strokeColor=#82b366;" parent="YcPQ61z67r9PlWFHKwve-9" vertex="1">
          <mxGeometry x="140" y="124" width="124" height="68" as="geometry" />
        </mxCell>
        <mxCell id="qxhW8dsD-y5GMp0r34zY-0" value="&lt;div&gt;Data Saved&lt;br&gt;&lt;/div&gt;&lt;div&gt;(asyn trigger)&lt;br&gt;&lt;/div&gt;" style="html=1;outlineConnect=0;whiteSpace=wrap;fillColor=#d5e8d4;shape=mxgraph.archimate3.event;strokeColor=#82b366;" parent="YcPQ61z67r9PlWFHKwve-9" vertex="1">
          <mxGeometry x="330" y="133.5" width="98" height="44.5" as="geometry" />
        </mxCell>
        <mxCell id="YcPQ61z67r9PlWFHKwve-22" value="&lt;div style=&quot;font-size: 12px;&quot;&gt;JSON: Snow2Spryker&lt;/div&gt;" style="html=1;outlineConnect=0;whiteSpace=wrap;fillColor=#fff2cc;shape=mxgraph.archimate3.representation;fontSize=12;align=center;strokeColor=#d6b656;" parent="YcPQ61z67r9PlWFHKwve-1" vertex="1">
          <mxGeometry x="689" y="458" width="133" height="58" as="geometry" />
        </mxCell>
        <mxCell id="YcPQ61z67r9PlWFHKwve-24" value="" style="edgeStyle=orthogonalEdgeStyle;html=1;endArrow=open;elbow=vertical;endFill=0;dashed=1;dashPattern=1 4;rounded=0;exitX=0.5;exitY=1;exitDx=0;exitDy=0;exitPerimeter=0;entryX=1;entryY=0.5;entryDx=0;entryDy=0;entryPerimeter=0;fillColor=#80b6a1;" parent="YcPQ61z67r9PlWFHKwve-1" source="YcPQ61z67r9PlWFHKwve-4" target="YcPQ61z67r9PlWFHKwve-22" edge="1">
          <mxGeometry width="160" relative="1" as="geometry">
            <mxPoint x="754.5" y="416.5" as="sourcePoint" />
            <mxPoint x="852" y="450" as="targetPoint" />
          </mxGeometry>
        </mxCell>
        <mxCell id="YcPQ61z67r9PlWFHKwve-25" value="&lt;div&gt;&lt;b&gt;Synchronous&lt;/b&gt;&lt;/div&gt;&lt;div&gt;OAuth 2.0 over TLS 1.2&lt;/div&gt;" style="text;html=1;align=center;verticalAlign=middle;resizable=0;points=[];autosize=1;strokeColor=none;fillColor=none;" parent="YcPQ61z67r9PlWFHKwve-1" vertex="1">
          <mxGeometry x="685" y="293" width="136" height="32" as="geometry" />
        </mxCell>
        <mxCell id="E_QHvEz7EIVC_zJzZOKt-0" value="&lt;span id=&quot;hs_cos_wrapper_post_body&quot; class=&quot;hs_cos_wrapper hs_cos_wrapper_meta_field hs_cos_wrapper_type_rich_text&quot;&gt;Process Automation&lt;/span&gt;" style="html=1;outlineConnect=0;whiteSpace=wrap;fillColor=#d5e8d4;shape=mxgraph.archimate3.application;appType=func;archiType=rounded;strokeColor=#82b366;verticalAlign=top;" parent="YcPQ61z67r9PlWFHKwve-1" vertex="1">
          <mxGeometry x="469" y="221" width="162" height="233" as="geometry" />
        </mxCell>
        <mxCell id="E_QHvEz7EIVC_zJzZOKt-1" value="Flow Designer" style="html=1;outlineConnect=0;whiteSpace=wrap;fillColor=#d5e8d4;shape=mxgraph.archimate3.application;appType=comp;archiType=square;verticalAlign=top;strokeColor=#82b366;" parent="YcPQ61z67r9PlWFHKwve-1" vertex="1">
          <mxGeometry x="483" y="255" width="140" height="182" as="geometry" />
        </mxCell>
        <mxCell id="E_QHvEz7EIVC_zJzZOKt-2" value="IntegrationHub" style="html=1;outlineConnect=0;whiteSpace=wrap;fillColor=#d5e8d4;shape=mxgraph.archimate3.application;appType=collab;archiType=square;verticalAlign=top;strokeColor=#82b366;" parent="YcPQ61z67r9PlWFHKwve-1" vertex="1">
          <mxGeometry x="495" y="288" width="120" height="74" as="geometry" />
        </mxCell>
        <mxCell id="E_QHvEz7EIVC_zJzZOKt-3" value="Spoke" style="html=1;outlineConnect=0;whiteSpace=wrap;fillColor=#d5e8d4;shape=mxgraph.archimate3.application;appType=comp;archiType=square;verticalAlign=middle;strokeColor=#82b366;" parent="YcPQ61z67r9PlWFHKwve-1" vertex="1">
          <mxGeometry x="510" y="314" width="91.75" height="42" as="geometry" />
        </mxCell>
        <mxCell id="YcPQ61z67r9PlWFHKwve-14" value="" style="edgeStyle=orthogonalEdgeStyle;html=1;endArrow=open;elbow=vertical;endFill=0;dashed=1;dashPattern=1 4;rounded=0;entryX=1;entryY=0.5;entryDx=0;entryDy=0;entryPerimeter=0;fillColor=#80b6a1;exitX=0.25;exitY=1;exitDx=0;exitDy=0;exitPerimeter=0;" parent="YcPQ61z67r9PlWFHKwve-1" source="E_QHvEz7EIVC_zJzZOKt-1" target="YcPQ61z67r9PlWFHKwve-13" edge="1">
          <mxGeometry width="160" relative="1" as="geometry">
            <mxPoint x="447" y="468" as="sourcePoint" />
            <mxPoint x="906" y="745.5" as="targetPoint" />
          </mxGeometry>
        </mxCell>
        <mxCell id="qxhW8dsD-y5GMp0r34zY-1" value="" style="edgeStyle=none;rounded=0;orthogonalLoop=1;jettySize=auto;html=1;fillColor=#80b6a1;entryX=0;entryY=0.5;entryDx=0;entryDy=0;entryPerimeter=0;exitX=1;exitY=0.5;exitDx=0;exitDy=0;exitPerimeter=0;" parent="YcPQ61z67r9PlWFHKwve-1" source="qxhW8dsD-y5GMp0r34zY-0" target="E_QHvEz7EIVC_zJzZOKt-1" edge="1">
          <mxGeometry relative="1" as="geometry">
            <mxPoint x="154" y="111" as="sourcePoint" />
            <mxPoint x="209" y="111" as="targetPoint" />
          </mxGeometry>
        </mxCell>
        <mxCell id="qxhW8dsD-y5GMp0r34zY-2" value="&lt;font style=&quot;font-size: 14px&quot;&gt;&lt;b&gt;1&lt;/b&gt;&lt;/font&gt;" style="edgeLabel;html=1;align=center;verticalAlign=middle;resizable=0;points=[];fillColor=#80b6a1;" parent="qxhW8dsD-y5GMp0r34zY-1" vertex="1" connectable="0">
          <mxGeometry x="0.1385" relative="1" as="geometry">
            <mxPoint x="-9" as="offset" />
          </mxGeometry>
        </mxCell>
        <mxCell id="URbNl3b2ec6oBdkUUNOr-1" value="&lt;div&gt;Flow Action&lt;/div&gt;&lt;div&gt;(update INC)&lt;br&gt;&lt;/div&gt;" style="html=1;outlineConnect=0;whiteSpace=wrap;fillColor=#d5e8d4;shape=mxgraph.archimate3.application;appType=comp;archiType=square;verticalAlign=middle;strokeColor=#82b366;" parent="YcPQ61z67r9PlWFHKwve-1" vertex="1">
          <mxGeometry x="495" y="380" width="121" height="48" as="geometry" />
        </mxCell>
        <mxCell id="URbNl3b2ec6oBdkUUNOr-2" value="" style="edgeStyle=orthogonalEdgeStyle;html=1;endArrow=open;elbow=vertical;endFill=0;dashed=1;dashPattern=1 4;rounded=0;exitX=1;exitY=0.75;exitDx=0;exitDy=0;exitPerimeter=0;entryX=0;entryY=0.5;entryDx=0;entryDy=0;entryPerimeter=0;fillColor=#80b6a1;" parent="YcPQ61z67r9PlWFHKwve-1" source="E_QHvEz7EIVC_zJzZOKt-3" target="YcPQ61z67r9PlWFHKwve-22" edge="1">
          <mxGeometry width="160" relative="1" as="geometry">
            <mxPoint x="915.5" y="384" as="sourcePoint" />
            <mxPoint x="839" y="494.5" as="targetPoint" />
          </mxGeometry>
        </mxCell>
        <mxCell id="URbNl3b2ec6oBdkUUNOr-3" value="" style="edgeStyle=elbowEdgeStyle;html=1;endArrow=block;dashed=1;elbow=vertical;endFill=1;dashPattern=6 4;rounded=0;entryX=0.5;entryY=0;entryDx=0;entryDy=0;entryPerimeter=0;" parent="YcPQ61z67r9PlWFHKwve-1" source="E_QHvEz7EIVC_zJzZOKt-3" target="URbNl3b2ec6oBdkUUNOr-1" edge="1">
          <mxGeometry width="160" relative="1" as="geometry">
            <mxPoint x="362" y="394" as="sourcePoint" />
            <mxPoint x="522" y="394" as="targetPoint" />
          </mxGeometry>
        </mxCell>
        <mxCell id="gpyhw4safOaDeC1kDyDY-0" value="" style="edgeStyle=elbowEdgeStyle;html=1;endArrow=block;dashed=1;elbow=vertical;endFill=1;dashPattern=6 4;rounded=0;fontSize=12;exitX=1;exitY=0.5;exitDx=0;exitDy=0;exitPerimeter=0;" parent="YcPQ61z67r9PlWFHKwve-1" source="E_QHvEz7EIVC_zJzZOKt-3" target="YcPQ61z67r9PlWFHKwve-4" edge="1">
          <mxGeometry width="160" relative="1" as="geometry">
            <mxPoint x="679" y="150" as="sourcePoint" />
            <mxPoint x="839" y="150" as="targetPoint" />
          </mxGeometry>
        </mxCell>
        <mxCell id="gpyhw4safOaDeC1kDyDY-1" value="&lt;b&gt;2&lt;/b&gt;" style="edgeLabel;html=1;align=center;verticalAlign=middle;resizable=0;points=[];fontSize=12;" parent="gpyhw4safOaDeC1kDyDY-0" vertex="1" connectable="0">
          <mxGeometry x="0.0913" y="1" relative="1" as="geometry">
            <mxPoint as="offset" />
          </mxGeometry>
        </mxCell>
      </root>
    </mxGraphModel>
  </diagram>
  <diagram name="Sec:SF2SN" id="d-gL0-F1R19KWdihxOas">
    <mxGraphModel dx="1515" dy="1166" grid="0" gridSize="10" guides="1" tooltips="1" connect="1" arrows="1" fold="1" page="1" pageScale="1" pageWidth="1169" pageHeight="827" math="0" shadow="0">
      <root>
        <mxCell id="RvUQp98ntliPEG7AJHw2-0" />
        <mxCell id="RvUQp98ntliPEG7AJHw2-1" parent="RvUQp98ntliPEG7AJHw2-0" />
        <mxCell id="RvUQp98ntliPEG7AJHw2-2" value="Salesforce" style="swimlane;" parent="RvUQp98ntliPEG7AJHw2-1" vertex="1">
          <mxGeometry x="797" y="70" width="328" height="464" as="geometry" />
        </mxCell>
        <mxCell id="RvUQp98ntliPEG7AJHw2-3" value="DB: Case" style="html=1;outlineConnect=0;whiteSpace=wrap;fillColor=#dae8fc;shape=mxgraph.archimate3.businessObject;overflow=fill;strokeColor=#6c8ebf;" parent="RvUQp98ntliPEG7AJHw2-2" vertex="1">
          <mxGeometry x="147" y="175" width="130" height="61" as="geometry" />
        </mxCell>
        <mxCell id="RvUQp98ntliPEG7AJHw2-4" value="&lt;div&gt;Data &lt;br&gt;&lt;/div&gt;&lt;div&gt;Changes&lt;/div&gt;" style="html=1;outlineConnect=0;whiteSpace=wrap;fillColor=#dae8fc;shape=mxgraph.archimate3.event;direction=west;strokeColor=#6c8ebf;" parent="RvUQp98ntliPEG7AJHw2-2" vertex="1">
          <mxGeometry x="213" y="64" width="98" height="45" as="geometry" />
        </mxCell>
        <mxCell id="RvUQp98ntliPEG7AJHw2-5" value="ServiceNow" style="swimlane;" parent="RvUQp98ntliPEG7AJHw2-1" vertex="1">
          <mxGeometry x="55" y="70" width="552" height="462" as="geometry" />
        </mxCell>
        <mxCell id="RvUQp98ntliPEG7AJHw2-6" value="&lt;div&gt;Scripted REST API&lt;/div&gt;" style="html=1;outlineConnect=0;whiteSpace=wrap;fillColor=#d5e8d4;shape=mxgraph.archimate3.application;appType=interface;archiType=square;strokeColor=#82b366;verticalAlign=top;" parent="RvUQp98ntliPEG7AJHw2-5" vertex="1">
          <mxGeometry x="21" y="188" width="413" height="96" as="geometry" />
        </mxCell>
        <mxCell id="RvUQp98ntliPEG7AJHw2-7" value="&lt;div&gt;Data &lt;br&gt;&lt;/div&gt;&lt;div&gt;transformation&lt;/div&gt;" style="html=1;outlineConnect=0;whiteSpace=wrap;fillColor=#d5e8d4;shape=mxgraph.archimate3.application;appType=func;archiType=rounded;strokeColor=#82b366;verticalAlign=middle;align=center;" parent="RvUQp98ntliPEG7AJHw2-5" vertex="1">
          <mxGeometry x="167" y="218" width="125" height="53" as="geometry" />
        </mxCell>
        <mxCell id="RvUQp98ntliPEG7AJHw2-8" value="&lt;div&gt;Asyn Flow&lt;/div&gt;&lt;div&gt;registration&lt;br&gt;&lt;/div&gt;" style="html=1;outlineConnect=0;whiteSpace=wrap;fillColor=#d5e8d4;shape=mxgraph.archimate3.application;appType=func;archiType=rounded;strokeColor=#82b366;verticalAlign=middle;align=center;" parent="RvUQp98ntliPEG7AJHw2-5" vertex="1">
          <mxGeometry x="33" y="218" width="125" height="53" as="geometry" />
        </mxCell>
        <mxCell id="RvUQp98ntliPEG7AJHw2-9" value="Pre-Validation" style="html=1;outlineConnect=0;whiteSpace=wrap;fillColor=#d5e8d4;shape=mxgraph.archimate3.application;appType=func;archiType=rounded;strokeColor=#82b366;verticalAlign=middle;align=center;" parent="RvUQp98ntliPEG7AJHw2-5" vertex="1">
          <mxGeometry x="301" y="218" width="125" height="53" as="geometry" />
        </mxCell>
        <mxCell id="RvUQp98ntliPEG7AJHw2-10" value="&lt;span id=&quot;hs_cos_wrapper_post_body&quot; class=&quot;hs_cos_wrapper hs_cos_wrapper_meta_field hs_cos_wrapper_type_rich_text&quot;&gt;Process Automation&lt;/span&gt;" style="html=1;outlineConnect=0;whiteSpace=wrap;fillColor=#d5e8d4;shape=mxgraph.archimate3.application;appType=func;archiType=rounded;verticalAlign=top;strokeColor=#82b366;" parent="RvUQp98ntliPEG7AJHw2-5" vertex="1">
          <mxGeometry x="89" y="323" width="186" height="123" as="geometry" />
        </mxCell>
        <mxCell id="RvUQp98ntliPEG7AJHw2-28" value="&lt;div&gt;&lt;span class=&quot;ng-scope&quot;&gt;&lt;span class=&quot;ng-scope&quot;&gt;&lt;span id=&quot;section_tab.d582dcb0c3310200b0449f2974d3aebd&quot;&gt;&lt;span id=&quot;section-d582dcb0c3310200b0449f2974d3aebd&quot;&gt;ADCv2 &lt;br&gt;&lt;/span&gt;&lt;/span&gt;&lt;/span&gt;&lt;/span&gt;&lt;/div&gt;&lt;div&gt;&lt;span class=&quot;ng-scope&quot;&gt;&lt;span class=&quot;ng-scope&quot;&gt;&lt;span id=&quot;section_tab.d582dcb0c3310200b0449f2974d3aebd&quot;&gt;&lt;span id=&quot;section-d582dcb0c3310200b0449f2974d3aebd&quot;&gt;load balancer&lt;/span&gt;&lt;/span&gt;&lt;/span&gt;&lt;/span&gt;&lt;/div&gt;&amp;nbsp;(SSL termination)" style="html=1;outlineConnect=0;whiteSpace=wrap;fillColor=#d5e8d4;shape=mxgraph.archimate3.tech;techType=device;fontSize=12;strokeColor=#82b366;" parent="RvUQp98ntliPEG7AJHw2-5" vertex="1">
          <mxGeometry x="413" y="91" width="122" height="75" as="geometry" />
        </mxCell>
        <mxCell id="RvUQp98ntliPEG7AJHw2-29" value="&lt;span class=&quot;ph cmd&quot;&gt;&lt;span class=&quot;ph menucascade&quot;&gt;&lt;span class=&quot;ph uicontrol&quot;&gt;Certificate Based Authentication&lt;/span&gt;&lt;/span&gt;&lt;/span&gt;" style="html=1;outlineConnect=0;whiteSpace=wrap;fillColor=#d5e8d4;shape=mxgraph.archimate3.application;appType=func;archiType=rounded;strokeColor=#82b366;verticalAlign=top;align=center;" parent="RvUQp98ntliPEG7AJHw2-5" vertex="1">
          <mxGeometry x="21" y="49" width="287" height="91" as="geometry" />
        </mxCell>
        <mxCell id="RvUQp98ntliPEG7AJHw2-30" value="&lt;div&gt;&lt;span class=&quot;ph cmd&quot;&gt;&lt;span class=&quot;ph menucascade&quot;&gt;&lt;span class=&quot;ph uicontrol&quot;&gt;CA Certificate&lt;/span&gt;&lt;/span&gt;&lt;/span&gt;&lt;/div&gt;&lt;div&gt;&lt;span class=&quot;ph cmd&quot;&gt;&lt;span class=&quot;ph menucascade&quot;&gt;&lt;span class=&quot;ph uicontrol&quot;&gt;Chain&lt;/span&gt;&lt;/span&gt;&lt;/span&gt;&lt;/div&gt;" style="html=1;outlineConnect=0;whiteSpace=wrap;fillColor=#d5e8d4;shape=mxgraph.archimate3.application;appType=comp;archiType=square;strokeColor=#82b366;verticalAlign=middle;" parent="RvUQp98ntliPEG7AJHw2-5" vertex="1">
          <mxGeometry x="29" y="80" width="118" height="47" as="geometry" />
        </mxCell>
        <mxCell id="RvUQp98ntliPEG7AJHw2-31" value="&lt;span class=&quot;ph cmd&quot;&gt;&lt;span class=&quot;ph menucascade&quot;&gt;&lt;span class=&quot;ph uicontrol&quot;&gt;User to Certificate Mapping&lt;/span&gt;&lt;/span&gt;&lt;/span&gt;" style="html=1;outlineConnect=0;whiteSpace=wrap;fillColor=#d5e8d4;shape=mxgraph.archimate3.application;appType=comp;archiType=square;strokeColor=#82b366;verticalAlign=middle;" parent="RvUQp98ntliPEG7AJHw2-5" vertex="1">
          <mxGeometry x="159" y="80" width="130" height="47" as="geometry" />
        </mxCell>
        <mxCell id="RvUQp98ntliPEG7AJHw2-36" value="&lt;div&gt;Header: &lt;br&gt;&lt;/div&gt;&lt;div&gt;+ x-client-cert&lt;br&gt;&lt;/div&gt;" style="text;html=1;align=center;verticalAlign=middle;resizable=0;points=[];autosize=1;strokeColor=none;fillColor=none;" parent="RvUQp98ntliPEG7AJHw2-5" vertex="1">
          <mxGeometry x="322.5" y="80" width="82" height="32" as="geometry" />
        </mxCell>
        <mxCell id="5C0ruvfyT3z_VKV0-DVf-0" value="" style="edgeStyle=elbowEdgeStyle;html=1;endArrow=block;dashed=1;elbow=vertical;endFill=1;dashPattern=6 4;rounded=0;fontSize=12;exitX=0.5;exitY=1;exitDx=0;exitDy=0;exitPerimeter=0;" parent="RvUQp98ntliPEG7AJHw2-5" source="RvUQp98ntliPEG7AJHw2-28" target="RvUQp98ntliPEG7AJHw2-6" edge="1">
          <mxGeometry width="160" relative="1" as="geometry">
            <mxPoint x="425.9999999999998" y="114" as="sourcePoint" />
            <mxPoint x="318" y="114" as="targetPoint" />
            <Array as="points">
              <mxPoint x="466" y="200" />
              <mxPoint x="471" y="187" />
              <mxPoint x="347" y="114" />
            </Array>
          </mxGeometry>
        </mxCell>
        <mxCell id="5C0ruvfyT3z_VKV0-DVf-1" value="&lt;b&gt;C&lt;/b&gt;" style="edgeLabel;html=1;align=center;verticalAlign=middle;resizable=0;points=[];fontSize=12;" parent="5C0ruvfyT3z_VKV0-DVf-0" vertex="1" connectable="0">
          <mxGeometry x="-0.0155" relative="1" as="geometry">
            <mxPoint as="offset" />
          </mxGeometry>
        </mxCell>
        <mxCell id="5C0ruvfyT3z_VKV0-DVf-2" value="" style="edgeStyle=elbowEdgeStyle;html=1;endArrow=open;elbow=vertical;endFill=0;dashed=1;dashPattern=1 4;rounded=0;fontSize=12;" parent="RvUQp98ntliPEG7AJHw2-5" source="RvUQp98ntliPEG7AJHw2-28" target="RvUQp98ntliPEG7AJHw2-29" edge="1">
          <mxGeometry width="160" relative="1" as="geometry">
            <mxPoint x="482" y="301" as="sourcePoint" />
            <mxPoint x="642" y="301" as="targetPoint" />
          </mxGeometry>
        </mxCell>
        <mxCell id="5C0ruvfyT3z_VKV0-DVf-3" value="" style="edgeStyle=elbowEdgeStyle;html=1;endArrow=open;elbow=vertical;endFill=0;dashed=1;dashPattern=1 4;rounded=0;fontSize=12;" parent="RvUQp98ntliPEG7AJHw2-5" source="RvUQp98ntliPEG7AJHw2-6" target="RvUQp98ntliPEG7AJHw2-29" edge="1">
          <mxGeometry width="160" relative="1" as="geometry">
            <mxPoint x="423" y="125.65517241379314" as="sourcePoint" />
            <mxPoint x="318" y="125.65517241379314" as="targetPoint" />
          </mxGeometry>
        </mxCell>
        <mxCell id="RvUQp98ntliPEG7AJHw2-11" value="Spryker" style="html=1;outlineConnect=0;whiteSpace=wrap;fillColor=#dae8fc;shape=mxgraph.archimate3.application;appType=comp;archiType=square;strokeColor=#6c8ebf;verticalAlign=top;" parent="RvUQp98ntliPEG7AJHw2-1" vertex="1">
          <mxGeometry x="810" y="119" width="163" height="75" as="geometry" />
        </mxCell>
        <mxCell id="RvUQp98ntliPEG7AJHw2-12" value="" style="edgeStyle=orthogonalEdgeStyle;html=1;endArrow=open;elbow=vertical;endFill=0;dashed=1;dashPattern=1 4;rounded=0;exitX=0.75;exitY=1;exitDx=0;exitDy=0;exitPerimeter=0;fillColor=#00b9f2;" parent="RvUQp98ntliPEG7AJHw2-1" source="RvUQp98ntliPEG7AJHw2-11" target="RvUQp98ntliPEG7AJHw2-3" edge="1">
          <mxGeometry width="160" relative="1" as="geometry">
            <mxPoint x="727" y="234" as="sourcePoint" />
            <mxPoint x="772" y="291.5" as="targetPoint" />
          </mxGeometry>
        </mxCell>
        <mxCell id="RvUQp98ntliPEG7AJHw2-13" value="" style="edgeStyle=none;rounded=0;orthogonalLoop=1;jettySize=auto;html=1;fillColor=#80b6a1;exitX=1;exitY=0.5;exitDx=0;exitDy=0;exitPerimeter=0;entryX=1;entryY=0.5;entryDx=0;entryDy=0;entryPerimeter=0;" parent="RvUQp98ntliPEG7AJHw2-1" source="RvUQp98ntliPEG7AJHw2-4" target="RvUQp98ntliPEG7AJHw2-11" edge="1">
          <mxGeometry relative="1" as="geometry">
            <mxPoint x="857" y="7" as="sourcePoint" />
            <mxPoint x="707" y="7" as="targetPoint" />
          </mxGeometry>
        </mxCell>
        <mxCell id="RvUQp98ntliPEG7AJHw2-14" value="&lt;font style=&quot;font-size: 14px&quot;&gt;&lt;b&gt;A&lt;/b&gt;&lt;/font&gt;" style="edgeLabel;html=1;align=center;verticalAlign=middle;resizable=0;points=[];fillColor=#80b6a1;" parent="RvUQp98ntliPEG7AJHw2-13" vertex="1" connectable="0">
          <mxGeometry x="0.1385" relative="1" as="geometry">
            <mxPoint y="1" as="offset" />
          </mxGeometry>
        </mxCell>
        <mxCell id="RvUQp98ntliPEG7AJHw2-17" value="" style="edgeStyle=orthogonalEdgeStyle;html=1;endArrow=open;elbow=vertical;endFill=0;dashed=1;dashPattern=1 4;rounded=0;exitX=0.25;exitY=1;exitDx=0;exitDy=0;exitPerimeter=0;entryX=1;entryY=0.5;entryDx=0;entryDy=0;entryPerimeter=0;fillColor=#80b6a1;" parent="RvUQp98ntliPEG7AJHw2-1" source="RvUQp98ntliPEG7AJHw2-11" target="RvUQp98ntliPEG7AJHw2-19" edge="1">
          <mxGeometry width="160" relative="1" as="geometry">
            <mxPoint x="415" y="-223.5" as="sourcePoint" />
            <mxPoint x="374" y="-166" as="targetPoint" />
          </mxGeometry>
        </mxCell>
        <mxCell id="RvUQp98ntliPEG7AJHw2-18" value="" style="edgeStyle=orthogonalEdgeStyle;html=1;endArrow=open;elbow=vertical;endFill=0;dashed=1;dashPattern=1 4;rounded=0;fillColor=#80b6a1;entryX=0;entryY=0.5;entryDx=0;entryDy=0;entryPerimeter=0;" parent="RvUQp98ntliPEG7AJHw2-1" source="RvUQp98ntliPEG7AJHw2-6" target="RvUQp98ntliPEG7AJHw2-19" edge="1">
          <mxGeometry width="160" relative="1" as="geometry">
            <mxPoint x="425" y="-213.5" as="sourcePoint" />
            <mxPoint x="384" y="-156" as="targetPoint" />
          </mxGeometry>
        </mxCell>
        <mxCell id="RvUQp98ntliPEG7AJHw2-19" value="&lt;div style=&quot;font-size: 12px;&quot;&gt;XML: Outbound Message&lt;/div&gt;" style="html=1;outlineConnect=0;whiteSpace=wrap;fillColor=#fff2cc;shape=mxgraph.archimate3.representation;fontSize=12;align=center;strokeColor=#d6b656;" parent="RvUQp98ntliPEG7AJHw2-1" vertex="1">
          <mxGeometry x="624" y="284.5" width="153" height="69.5" as="geometry" />
        </mxCell>
        <mxCell id="RvUQp98ntliPEG7AJHw2-20" value="&lt;div&gt;&lt;b&gt;Asynchronous&lt;/b&gt;&lt;/div&gt;&lt;div&gt;(mTLS)&lt;br&gt;&lt;/div&gt;" style="text;html=1;align=center;verticalAlign=middle;resizable=0;points=[];autosize=1;strokeColor=none;fillColor=none;" parent="RvUQp98ntliPEG7AJHw2-1" vertex="1">
          <mxGeometry x="658" y="131" width="94" height="32" as="geometry" />
        </mxCell>
        <mxCell id="RvUQp98ntliPEG7AJHw2-21" value="Salesforce Outbound Messaging" style="html=1;outlineConnect=0;whiteSpace=wrap;fillColor=#dae8fc;shape=mxgraph.archimate3.application;appType=comp;archiType=square;strokeColor=#6c8ebf;verticalAlign=middle;" parent="RvUQp98ntliPEG7AJHw2-1" vertex="1">
          <mxGeometry x="816" y="146.5" width="148.5" height="41" as="geometry" />
        </mxCell>
        <mxCell id="RvUQp98ntliPEG7AJHw2-22" value="Flow Designer" style="html=1;outlineConnect=0;whiteSpace=wrap;fillColor=#d5e8d4;shape=mxgraph.archimate3.application;appType=comp;archiType=square;strokeColor=#82b366;verticalAlign=top;" parent="RvUQp98ntliPEG7AJHw2-1" vertex="1">
          <mxGeometry x="164" y="428" width="148" height="81" as="geometry" />
        </mxCell>
        <mxCell id="RvUQp98ntliPEG7AJHw2-23" value="Flow Action" style="html=1;outlineConnect=0;whiteSpace=wrap;fillColor=#d5e8d4;shape=mxgraph.archimate3.application;appType=comp;archiType=square;strokeColor=#82b366;verticalAlign=middle;" parent="RvUQp98ntliPEG7AJHw2-1" vertex="1">
          <mxGeometry x="183.5" y="455" width="101" height="47" as="geometry" />
        </mxCell>
        <mxCell id="RvUQp98ntliPEG7AJHw2-24" value="DB: Incident" style="html=1;outlineConnect=0;whiteSpace=wrap;fillColor=#d5e8d4;shape=mxgraph.archimate3.businessObject;overflow=fill;strokeColor=#82b366;" parent="RvUQp98ntliPEG7AJHw2-1" vertex="1">
          <mxGeometry x="359" y="459" width="130" height="58" as="geometry" />
        </mxCell>
        <mxCell id="RvUQp98ntliPEG7AJHw2-25" value="" style="edgeStyle=orthogonalEdgeStyle;html=1;endArrow=open;elbow=vertical;endFill=0;dashed=1;dashPattern=1 4;rounded=0;fillColor=#80b6a1;entryX=0;entryY=0.5;entryDx=0;entryDy=0;entryPerimeter=0;exitX=1;exitY=0.5;exitDx=0;exitDy=0;exitPerimeter=0;" parent="RvUQp98ntliPEG7AJHw2-1" source="RvUQp98ntliPEG7AJHw2-23" target="RvUQp98ntliPEG7AJHw2-24" edge="1">
          <mxGeometry width="160" relative="1" as="geometry">
            <mxPoint x="353.75" y="223" as="sourcePoint" />
            <mxPoint x="496" y="254.5" as="targetPoint" />
          </mxGeometry>
        </mxCell>
        <mxCell id="RvUQp98ntliPEG7AJHw2-26" value="&lt;b&gt;D&lt;/b&gt; (Asynchronous)" style="edgeStyle=orthogonalEdgeStyle;html=1;endArrow=block;dashed=1;elbow=vertical;endFill=1;dashPattern=6 4;rounded=0;exitX=0.25;exitY=1;exitDx=0;exitDy=0;exitPerimeter=0;entryX=0;entryY=0.5;entryDx=0;entryDy=0;entryPerimeter=0;" parent="RvUQp98ntliPEG7AJHw2-1" source="RvUQp98ntliPEG7AJHw2-8" target="RvUQp98ntliPEG7AJHw2-22" edge="1">
          <mxGeometry x="-0.5157" width="160" relative="1" as="geometry">
            <mxPoint x="163" y="446" as="sourcePoint" />
            <mxPoint x="170" y="429" as="targetPoint" />
            <Array as="points">
              <mxPoint x="119" y="375" />
              <mxPoint x="120" y="375" />
              <mxPoint x="120" y="468" />
            </Array>
            <mxPoint as="offset" />
          </mxGeometry>
        </mxCell>
        <mxCell id="QjQv4OoeNJB3LHj51hYF-0" value="" style="edgeStyle=elbowEdgeStyle;html=1;endArrow=block;dashed=1;elbow=vertical;endFill=1;dashPattern=6 4;rounded=0;fontSize=12;" parent="RvUQp98ntliPEG7AJHw2-1" source="RvUQp98ntliPEG7AJHw2-21" target="RvUQp98ntliPEG7AJHw2-28" edge="1">
          <mxGeometry width="160" relative="1" as="geometry">
            <mxPoint x="493.0000000000002" y="184" as="sourcePoint" />
            <mxPoint x="638" y="121" as="targetPoint" />
            <Array as="points">
              <mxPoint x="646" y="178" />
              <mxPoint x="616" y="167" />
              <mxPoint x="668" y="173" />
              <mxPoint x="402" y="184" />
            </Array>
          </mxGeometry>
        </mxCell>
        <mxCell id="QjQv4OoeNJB3LHj51hYF-1" value="&lt;b&gt;B&lt;/b&gt;" style="edgeLabel;html=1;align=center;verticalAlign=middle;resizable=0;points=[];fontSize=12;" parent="QjQv4OoeNJB3LHj51hYF-0" vertex="1" connectable="0">
          <mxGeometry x="-0.0155" relative="1" as="geometry">
            <mxPoint as="offset" />
          </mxGeometry>
        </mxCell>
      </root>
    </mxGraphModel>
  </diagram>
</mxfile>
